<?xml version="1.0"?><svg width="640" height="480" xmlns="http://www.w3.org/2000/svg">

 <g>
  <title>Layer 1</title>
  <g id="layer1">
   <path stroke-dashoffset="0" stroke-miterlimit="4" stroke-linejoin="round" stroke-linecap="round" stroke-width="2.436926" stroke="#ffffff" fill-rule="evenodd" fill="#ff007f" id="path1317" d="m458.23999,148.432999c132.449036,-88.049198 -155.192993,-221.199097 -146.290985,-62.403595c15.397003,274.685593 -90.353012,104.278595 156.10498,226.540604c142.476044,70.678986 113.96701,-245.000404 -19.102997,-157.894012c-230.185989,150.678009 -135.483978,-26.108002 -118.136993,248.460999c10.028015,158.727997 269.160004,-23.800995 127.188019,-95.48999c-245.583008,-124.007996 -45.132019,-130.387009 -274.24202,21.919983c-132.448696,88.049011 155.192001,221.199005 146.291,62.404022c-15.397003,-274.686005 90.352997,-104.279022 -156.104996,-226.541016c-142.4765,-70.679192 -113.967098,245 19.102997,157.894012c230.185989,-150.678009 135.483994,26.108002 118.137009,-248.461006c-10.028015,-158.728302 -269.159603,23.801201 -127.188004,95.489998c245.582993,124.007996 45.130997,130.386993 274.241989,-21.919998l0,0z"/>
   <path stroke-opacity="0.431373" stroke-dashoffset="0" stroke-miterlimit="4" stroke-linejoin="round" stroke-linecap="round" stroke-width="0.79346" stroke="#ffffff" fill-rule="evenodd" fill="#ff007f" id="path2119" d="m378.969147,239a57.969151,57.969151 0 1 1 -115.938354,0a57.969151,57.969151 0 1 1 115.938354,0z"/>
   <path stroke-dashoffset="0" stroke-miterlimit="4" stroke-linejoin="round" stroke-linecap="round" stroke-width="0.79346" fill-rule="evenodd" fill="#ff007f" id="path2161" d="m263.829742,248.591187a57.969151,57.969151 0 0 1 82.264832,-61.847122l-25.094604,52.255936l-57.170227,9.591187z" stroke="#ffffff"/>
  </g>
  <ellipse ry="74.000001" rx="74.999998" id="svg_1" cy="240.000001" cx="318.000002" stroke-width="5" stroke="#000000" fill="#ffff00"/>
 </g>
</svg>